<svg width="306" height="80" viewBox="0 0 306 80" fill="none" xmlns="http://www.w3.org/2000/svg">
<path d="M34.7744 49.0515L22.1324 70.9484C19.8098 74.9715 22.713 79.9999 27.358 79.9999H52.642C57.2871 79.9999 60.1912 74.9715 57.8677 70.9484L45.2257 49.0515C42.9032 45.0284 37.0969 45.0284 34.7744 49.0515Z" fill="#001F3F"/>
<path d="M26 64.24L22.1324 70.9484C19.8098 74.9716 22.713 80 27.358 80H52.642C57.2871 80 60.1912 74.9716 57.8677 70.9484L50.76 58.68C51.6 62.92 29.6 57.84 26 64.24Z" fill="#11E956"/>
<path d="M31.7429 70.7064C31.9103 71.1153 32.3774 71.3111 32.7863 71.1438C33.1953 70.9764 33.3911 70.5093 33.2238 70.1004C33.0564 69.6915 32.5893 69.4956 32.1804 69.663C31.7715 69.8303 31.5756 70.2974 31.7429 70.7064Z" fill="#001F3F"/>
<path d="M27.3175 73.5259C27.7358 74.5482 28.9036 75.0378 29.9259 74.6195C30.9482 74.2012 31.4378 73.0333 31.0195 72.011C30.6011 70.9887 29.4333 70.4991 28.411 70.9175C27.3887 71.3358 26.8991 72.5036 27.3175 73.5259Z" fill="#001F3F"/>
<path d="M32.2566 74.4004C32.5494 75.116 33.3669 75.4588 34.0825 75.1659C34.7981 74.8731 35.1409 74.0556 34.848 73.34C34.5552 72.6244 33.7377 72.2817 33.0221 72.5745C32.3065 72.8673 31.9638 73.6848 32.2566 74.4004Z" fill="#001F3F"/>
<path fill-rule="evenodd" clip-rule="evenodd" d="M27.1123 64.8734L23.2409 71.5884C21.4109 74.7583 23.6984 78.72 27.358 78.72H52.642C56.302 78.72 58.5898 74.7581 56.7593 71.5886L50.6407 61.0274C49.89 61.412 48.8974 61.5992 47.8918 61.7098C46.2241 61.8932 44.0402 61.9052 41.7694 61.9177C41.2021 61.9209 40.6295 61.924 40.0582 61.9299C37.1326 61.9599 34.1765 62.0587 31.7467 62.5246C29.235 63.0061 27.7141 63.8035 27.1156 64.8675L27.1123 64.8734ZM49.9978 59.9177C50.5852 59.6351 50.8706 59.2383 50.76 58.68L57.8677 70.9484C60.1912 74.9716 57.2871 80 52.642 80H27.358C22.713 80 19.8098 74.9716 22.1324 70.9484L26 64.24C27.9827 60.7151 35.5468 60.6725 41.8025 60.6373C45.4094 60.617 48.5814 60.5992 49.9978 59.9177Z" fill="#001F3F"/>
<path d="M45.2256 30.9484L57.8676 9.05157C60.1901 5.02842 57.287 0 52.642 0H27.3579C22.7129 0 19.8088 5.02842 22.1323 9.05157L34.7743 30.9484C37.0968 34.9716 42.9031 34.9716 45.2256 30.9484Z" fill="#001F3F"/>
<path d="M49.0515 45.2256L70.9483 57.8676C74.9715 60.1901 79.9999 57.287 79.9999 52.642V27.3579C79.9999 22.7129 74.9715 19.8088 70.9483 22.1323L49.0515 34.7743C45.0283 37.0968 45.0283 42.9031 49.0515 45.2256Z" fill="#001F3F"/>
<path d="M30.9484 34.7743L9.05157 22.1323C5.02842 19.8098 0 22.7129 0 27.358V52.642C0 57.287 5.02842 60.1911 9.05157 57.8676L30.9484 45.2256C34.9716 42.9031 34.9716 37.0968 30.9484 34.7743Z" fill="#001F3F"/>
<path d="M96.4639 57.392C94.2079 57.392 93.0079 56.096 93.0079 53.792V26.432C93.0079 24.032 94.2559 22.688 96.2719 22.688C97.9519 22.688 98.6719 23.312 99.8719 24.848L115.424 44.672V26.24C115.424 23.984 116.624 22.688 118.88 22.688C121.136 22.688 122.336 23.984 122.336 26.24V53.936C122.336 56.048 121.184 57.392 119.312 57.392C117.488 57.392 116.672 56.72 115.472 55.184L99.9199 35.312V53.792C99.9199 56.096 98.7199 57.392 96.4639 57.392Z" fill="#001F3F"/>
<path d="M140.765 57.488C132.461 57.488 127.373 52.688 127.373 45.2C127.373 37.952 132.413 32.912 139.469 32.912C146.333 32.912 150.653 37.52 150.653 44.912C150.653 46.112 149.885 46.736 148.397 46.736H134.237C134.765 50.432 136.973 52.064 140.909 52.064C142.445 52.064 144.557 51.728 146.333 50.864C150.077 49.136 151.661 53.936 148.397 55.664C146.189 56.912 143.309 57.488 140.765 57.488ZM139.757 37.712C136.685 37.712 134.717 39.632 134.237 42.992H144.653C144.461 39.488 142.733 37.712 139.757 37.712Z" fill="#001F3F"/>
<path d="M157.271 57.296C154.583 57.296 153.239 54.752 155.207 52.304L161.303 44.816L155.735 38C153.719 35.552 155.111 33.008 157.799 33.008C159.575 33.008 160.583 33.536 161.591 34.88L165.479 39.824L169.319 34.88C170.375 33.536 171.383 33.008 173.111 33.008C175.799 33.008 177.143 35.552 175.127 38L169.559 44.816L175.703 52.304C177.671 54.704 176.279 57.296 173.591 57.296C171.911 57.296 170.855 56.72 169.799 55.424L165.431 49.808L161.015 55.424C160.007 56.672 159.047 57.296 157.271 57.296Z" fill="#001F3F"/>
<path d="M190.275 57.488C184.275 57.488 181.491 54.176 181.491 47.504V36.656C181.491 34.304 182.739 33.008 185.091 33.008C187.395 33.008 188.739 34.304 188.739 36.656V47.696C188.739 50.48 189.843 51.872 192.339 51.872C195.075 51.872 197.043 49.76 197.043 46.544V36.656C197.043 34.304 198.339 33.008 200.643 33.008C202.995 33.008 204.291 34.304 204.291 36.656V53.696C204.291 56.048 203.091 57.392 200.787 57.392C198.483 57.392 197.235 56.048 197.235 53.744C195.747 56.192 193.347 57.488 190.275 57.488Z" fill="#001F3F"/>
<path d="M218.923 57.488C216.091 57.488 212.923 57.008 210.523 55.808C207.259 54.224 209.035 49.712 212.155 51.008C214.747 52.112 216.907 52.496 218.971 52.496C221.707 52.496 222.907 51.536 222.907 50.144C222.907 48.944 222.043 48.32 220.459 48.032L215.419 47.12C211.435 46.4 209.227 44.192 209.227 40.688C209.227 35.936 213.547 32.912 219.691 32.912C222.571 32.912 224.923 33.392 227.179 34.544C230.107 35.984 228.283 40.592 225.115 39.2C223.051 38.288 221.323 37.856 219.787 37.856C216.907 37.856 215.707 38.864 215.707 40.304C215.707 41.408 216.427 42.128 217.963 42.416L223.003 43.328C227.131 44.048 229.387 46.112 229.387 49.664C229.387 54.608 225.211 57.488 218.923 57.488Z" fill="#001F3F"/>
<path d="M246.8 57.488C241.088 57.488 238.304 54.272 238.304 48.032V26.384C238.304 23.984 239.6 22.688 241.952 22.688C244.256 22.688 245.552 23.984 245.552 26.384V47.744C245.552 50.384 246.752 51.584 248.624 51.584C249.152 51.584 249.584 51.488 250.064 51.488C251.12 51.392 251.456 51.92 251.456 54.128C251.456 56.096 250.736 57.008 249.104 57.296C248.48 57.392 247.568 57.488 246.8 57.488Z" fill="#11E956"/>
<path d="M262.256 57.488C256.976 57.488 253.232 54.224 253.232 49.856C253.232 44.72 256.928 42.944 266.96 42.944H268.688V42.128C268.688 39.344 267.536 38.24 264.464 38.24C262.736 38.24 260.72 38.576 258.32 39.584C254.672 41.072 253.232 35.84 256.832 34.496C259.808 33.344 262.544 32.912 264.752 32.912C272.096 32.912 275.6 36.08 275.6 43.04V53.696C275.6 56.048 274.4 57.392 272.24 57.392C270.032 57.392 268.832 56.048 268.832 53.696V53.408C267.872 55.904 265.472 57.488 262.256 57.488ZM263.888 52.64C266.576 52.64 268.688 50.576 268.688 47.648V46.688H267.008C262.064 46.688 260.24 47.456 260.24 49.568C260.24 51.344 261.536 52.64 263.888 52.64Z" fill="#11E956"/>
<path d="M295.551 57.488C292.287 57.488 289.455 55.952 288.159 53.552V53.696C288.159 56.048 286.911 57.392 284.607 57.392C282.303 57.392 281.007 56.048 281.007 53.696V26.384C281.007 23.984 282.303 22.688 284.655 22.688C286.959 22.688 288.255 23.984 288.255 26.384V36.56C289.647 34.352 292.383 32.912 295.551 32.912C301.695 32.912 305.871 37.568 305.871 45.152C305.871 52.784 301.647 57.488 295.551 57.488ZM293.391 52.064C296.463 52.064 298.575 49.856 298.575 45.152C298.575 40.496 296.463 38.336 293.391 38.336C290.271 38.336 288.159 40.496 288.159 45.152C288.159 49.856 290.271 52.064 293.391 52.064Z" fill="#11E956"/>
</svg>
