<svg width="145" height="132" viewBox="0 0 145 132" fill="none" xmlns="http://www.w3.org/2000/svg">
<path d="M137.925 39.4735L137.926 39.4734C147.228 23.2816 135.614 3 116.951 3H28.0509C9.38794 3 -2.23091 23.2811 7.07626 39.4739L51.5259 116.834C51.5259 116.834 51.5259 116.834 51.5259 116.834C60.8453 133.055 84.1562 133.055 93.4756 116.834C93.4756 116.834 93.4756 116.834 93.4757 116.834L137.925 39.4735Z" fill="#001F3F" stroke="#11E956" stroke-width="6"/>
<path d="M92.6086 116.336L137.058 38.9753L135.324 37.9789L137.058 38.9752C145.982 23.4428 134.837 4 116.951 4H28.0509C10.1649 4 -0.984727 23.4425 7.94325 38.9756L52.3929 116.336C61.3278 131.888 83.6736 131.888 92.6085 116.336C92.6086 116.336 92.6086 116.336 92.6086 116.336Z" fill="#001F3F" stroke="#325368" stroke-width="4"/>
<path d="M72.8017 62C78.3245 62 82.8017 57.5228 82.8017 52C82.8017 46.4772 78.3245 42 72.8017 42C67.2788 42 62.8017 46.4772 62.8017 52C62.8017 57.5228 67.2788 62 72.8017 62Z" stroke="#11E956" stroke-width="3" stroke-linecap="round" stroke-linejoin="round"/>
<path d="M89.9817 82C89.9817 74.26 82.2817 68 72.8017 68C63.3217 68 55.6217 74.26 55.6217 82" stroke="#11E956" stroke-width="3" stroke-linecap="round" stroke-linejoin="round"/>
</svg>
