<svg width="64" height="64" viewBox="0 0 64 64" fill="none" xmlns="http://www.w3.org/2000/svg">
<path d="M25.6 53.3333H38.4C49.0667 53.3333 53.3333 49.0667 53.3333 38.4V25.6C53.3333 14.9333 49.0667 10.6667 38.4 10.6667H25.6C14.9333 10.6667 10.6667 14.9333 10.6667 25.6V38.4C10.6667 49.0667 14.9333 53.3333 25.6 53.3333Z" stroke="#11E956" stroke-width="4" stroke-linecap="round" stroke-linejoin="round"/>
<path d="M28 45.3333H36C42.6667 45.3333 45.3333 42.6667 45.3333 36V28C45.3333 21.3333 42.6667 18.6667 36 18.6667H28C21.3333 18.6667 18.6667 21.3333 18.6667 28V36C18.6667 42.6667 21.3333 45.3333 28 45.3333Z" stroke="#11E956" stroke-width="4" stroke-linecap="round" stroke-linejoin="round"/>
<path d="M21.36 10.6667V5.33334" stroke="#11E956" stroke-width="4" stroke-linecap="round" stroke-linejoin="round"/>
<path d="M32 10.6667V5.33334" stroke="#11E956" stroke-width="4" stroke-linecap="round" stroke-linejoin="round"/>
<path d="M42.6667 10.6667V5.33334" stroke="#11E956" stroke-width="4" stroke-linecap="round" stroke-linejoin="round"/>
<path d="M53.3333 21.3333H58.6667" stroke="#11E956" stroke-width="4" stroke-linecap="round" stroke-linejoin="round"/>
<path d="M53.3333 32H58.6667" stroke="#11E956" stroke-width="4" stroke-linecap="round" stroke-linejoin="round"/>
<path d="M53.3333 42.6667H58.6667" stroke="#11E956" stroke-width="4" stroke-linecap="round" stroke-linejoin="round"/>
<path d="M42.6667 53.3333V58.6667" stroke="#11E956" stroke-width="4" stroke-linecap="round" stroke-linejoin="round"/>
<path d="M32.0267 53.3333V58.6667" stroke="#11E956" stroke-width="4" stroke-linecap="round" stroke-linejoin="round"/>
<path d="M21.36 53.3333V58.6667" stroke="#11E956" stroke-width="4" stroke-linecap="round" stroke-linejoin="round"/>
<path d="M5.33333 21.3333H10.6667" stroke="#11E956" stroke-width="4" stroke-linecap="round" stroke-linejoin="round"/>
<path d="M5.33333 32H10.6667" stroke="#11E956" stroke-width="4" stroke-linecap="round" stroke-linejoin="round"/>
<path d="M5.33333 42.6667H10.6667" stroke="#11E956" stroke-width="4" stroke-linecap="round" stroke-linejoin="round"/>
</svg>
