<svg width="64" height="64" viewBox="0 0 64 64" fill="none" xmlns="http://www.w3.org/2000/svg">
<path d="M44.5333 50.6133H19.4667C18.3467 50.6133 17.0933 49.7333 16.72 48.6667L5.68 17.7867C4.10666 13.36 5.94666 12 9.73333 14.72L20.1333 22.16C21.8667 23.36 23.84 22.7467 24.5867 20.8L29.28 8.29334C30.7733 4.29333 33.2533 4.29333 34.7467 8.29334L39.44 20.8C40.1867 22.7467 42.16 23.36 43.8667 22.16L53.6267 15.2C57.7867 12.2133 59.7867 13.7333 58.08 18.56L47.3067 48.72C46.9067 49.7333 45.6533 50.6133 44.5333 50.6133Z" stroke="#11E956" stroke-width="4" stroke-linecap="round" stroke-linejoin="round"/>
<path d="M17.3333 58.6667H46.6667" stroke="#11E956" stroke-width="4" stroke-linecap="round" stroke-linejoin="round"/>
<path d="M25.3333 37.3333H38.6667" stroke="#11E956" stroke-width="4" stroke-linecap="round" stroke-linejoin="round"/>
</svg>
