<svg width="22" height="22" viewBox="0 0 22 22" fill="none" xmlns="http://www.w3.org/2000/svg">
<path d="M7.27835 13.3008C6.71001 13.09 6.20584 12.6775 5.88501 12.0908C5.15168 10.7525 5.60084 9.01081 6.90251 8.20415L9.04751 6.87497C10.34 6.0683 12.0083 6.50829 12.7417 7.83746C13.475 9.17579 13.0258 10.9175 11.7242 11.7241L11.44 11.9258" stroke="#11E956" stroke-width="1.5" stroke-linecap="round" stroke-linejoin="round"/>
<path d="M14.7675 8.6626C15.3358 8.87343 15.84 9.28591 16.1608 9.87258C16.8941 11.2109 16.445 12.9526 15.1433 13.7593L12.9983 15.0884C11.7058 15.8951 10.0375 15.4551 9.30414 14.1259C8.5708 12.7876 9.01997 11.0459 10.3216 10.2393L10.6058 10.0376" stroke="#11E956" stroke-width="1.5" stroke-linecap="round" stroke-linejoin="round"/>
<path d="M11 20.1666C16.0626 20.1666 20.1666 16.0625 20.1666 10.9999C20.1666 5.93731 16.0626 1.83325 11 1.83325C5.93737 1.83325 1.83331 5.93731 1.83331 10.9999C1.83331 16.0625 5.93737 20.1666 11 20.1666Z" stroke="#11E956" stroke-width="1.5" stroke-linecap="round" stroke-linejoin="round"/>
</svg>
