<svg width="52" height="72" viewBox="0 0 52 72" fill="none" xmlns="http://www.w3.org/2000/svg">
<path d="M49.3332 19.3334V52.6668C49.3332 66.0001 46.4165 69.3334 34.7499 69.3334H17.2499C5.5832 69.3334 2.66653 66.0001 2.66653 52.6668V19.3334C2.66653 6.00008 5.5832 2.66675 17.2499 2.66675H34.7499C46.4165 2.66675 49.3332 6.00008 49.3332 19.3334Z" stroke="#11E956" stroke-width="4" stroke-linecap="round" stroke-linejoin="round"/>
<path d="M32.6665 14.3335H19.3332" stroke="#11E956" stroke-width="4" stroke-linecap="round" stroke-linejoin="round"/>
<path d="M26.0005 59.6668C28.854 59.6668 31.1672 57.3536 31.1672 54.5002C31.1672 51.6467 28.854 49.3335 26.0005 49.3335C23.1471 49.3335 20.8339 51.6467 20.8339 54.5002C20.8339 57.3536 23.1471 59.6668 26.0005 59.6668Z" stroke="#11E956" stroke-width="3" stroke-linecap="round" stroke-linejoin="round"/>
</svg>
