<svg width="80" height="80" viewBox="0 0 80 80" fill="none" xmlns="http://www.w3.org/2000/svg">
<path d="M33.3333 56.5H20.7C9.46666 56.5 6.66666 53.7 6.66666 42.4667V22.4667C6.66666 11.2334 9.46666 8.43335 20.7 8.43335H55.8C67.0333 8.43335 69.8333 11.2334 69.8333 22.4667" stroke="#11E956" stroke-width="4" stroke-linecap="round" stroke-linejoin="round"/>
<path d="M33.3333 71.5667V56.5" stroke="#11E956" stroke-width="4" stroke-linecap="round" stroke-linejoin="round"/>
<path d="M6.66666 43.1667H33.3333" stroke="#11E956" stroke-width="4" stroke-linecap="round" stroke-linejoin="round"/>
<path d="M22.4667 71.5667H33.3333" stroke="#11E956" stroke-width="4" stroke-linecap="round" stroke-linejoin="round"/>
<path d="M73.3333 42.6667V61.7001C73.3333 69.6001 71.3667 71.5667 63.4667 71.5667H51.6333C43.7333 71.5667 41.7667 69.6001 41.7667 61.7001V42.6667C41.7667 34.7667 43.7333 32.8 51.6333 32.8H63.4667C71.3667 32.8 73.3333 34.7667 73.3333 42.6667Z" stroke="#11E956" stroke-width="4" stroke-linecap="round" stroke-linejoin="round"/>
<path d="M57.4817 60.8334H57.5116" stroke="#11E956" stroke-width="4" stroke-linecap="round" stroke-linejoin="round"/>
</svg>
