<svg width="145" height="132" viewBox="0 0 145 132" fill="none" xmlns="http://www.w3.org/2000/svg">
<path d="M7.07454 92.5265L7.07448 92.5266C-2.22808 108.718 9.38551 129 28.0494 129L116.949 129C135.612 129 147.231 108.719 137.924 92.5261L93.4742 15.1657C93.4741 15.1657 93.4741 15.1657 93.4741 15.1656C84.1547 -1.05521 60.8438 -1.05521 51.5244 15.1656C51.5244 15.1657 51.5244 15.1657 51.5244 15.1657L7.07454 92.5265Z" fill="#001F3F" stroke="#11E956" stroke-width="6"/>
<path d="M7.94156 93.0248L7.94161 93.0247L52.3914 15.6639C61.3263 0.112053 83.6721 0.112031 92.607 15.6638L7.94156 93.0248ZM7.94156 93.0248C-0.982163 108.557 10.1628 128 28.0494 128L116.949 128C134.835 128 145.985 108.558 137.057 93.0247C137.057 93.0246 137.057 93.0245 137.057 93.0245L92.6071 15.6639L7.94156 93.0248Z" fill="#001F3F" stroke="#325368" stroke-width="4"/>
<path d="M73.5417 63.76H84.0417" stroke="#11E956" stroke-width="3" stroke-linecap="round" stroke-linejoin="round"/>
<path d="M61.5617 63.76L63.0617 65.26L67.5617 60.76" stroke="#11E956" stroke-width="3" stroke-linecap="round" stroke-linejoin="round"/>
<path d="M73.5417 77.76H84.0417" stroke="#11E956" stroke-width="3" stroke-linecap="round" stroke-linejoin="round"/>
<path d="M61.5617 77.76L63.0617 79.26L67.5617 74.76" stroke="#11E956" stroke-width="3" stroke-linecap="round" stroke-linejoin="round"/>
<path d="M66.8017 90H78.8017C88.8017 90 92.8017 86 92.8017 76V64C92.8017 54 88.8017 50 78.8017 50H66.8017C56.8017 50 52.8017 54 52.8017 64V76C52.8017 86 56.8017 90 66.8017 90Z" stroke="#11E956" stroke-width="3" stroke-linecap="round" stroke-linejoin="round"/>
</svg>
