<svg width="64" height="64" viewBox="0 0 64 64" fill="none" xmlns="http://www.w3.org/2000/svg">
<path d="M50.6667 42.6667V17.3333C50.6667 14.4 48.2667 12 45.3334 12H30.6667" stroke="#11E956" stroke-width="4" stroke-linecap="round" stroke-linejoin="round"/>
<path d="M37.3333 5.33334L29.3333 12L37.3333 18.6667" stroke="#11E956" stroke-width="4" stroke-linecap="round" stroke-linejoin="round"/>
<path d="M50.6667 58.6667C55.085 58.6667 58.6667 55.0849 58.6667 50.6667C58.6667 46.2484 55.085 42.6667 50.6667 42.6667C46.2484 42.6667 42.6667 46.2484 42.6667 50.6667C42.6667 55.0849 46.2484 58.6667 50.6667 58.6667Z" stroke="#11E956" stroke-width="4" stroke-linecap="round" stroke-linejoin="round"/>
<path d="M13.3333 21.3333V46.6667C13.3333 49.6 15.7333 52 18.6666 52H33.3333" stroke="#11E956" stroke-width="4" stroke-linecap="round" stroke-linejoin="round"/>
<path d="M26.6667 58.6667L34.6667 52L26.6667 45.3333" stroke="#11E956" stroke-width="4" stroke-linecap="round" stroke-linejoin="round"/>
<path d="M13.3333 21.3333C17.7516 21.3333 21.3333 17.7516 21.3333 13.3333C21.3333 8.91507 17.7516 5.33334 13.3333 5.33334C8.91504 5.33334 5.33331 8.91507 5.33331 13.3333C5.33331 17.7516 8.91504 21.3333 13.3333 21.3333Z" stroke="#11E956" stroke-width="4" stroke-linecap="round" stroke-linejoin="round"/>
</svg>
